# xmcd
#
# Track frame offsets:
#	150
#	10686
#	21801
#	31024
#	45854
#	57946
#	68171
#	80627
#	90629
#	101906
#	112846
#	123669
#
# Disc length: 1806 seconds
#
# Revision: 0
# Processed by: cddbd v1.5.2PL0 Copyright (c) Steve Scherf et al.
# Submitted via: EasyCDDAExtractor 15.2.5.1
#
DISCID=8b070c0c
DTITLE=OLDIES - Stereo EX-010(日本版)
DYEAR=1955
DGENRE=Bluegrass
TTITLE0=Oh,Carol
TTITLE1=Vacation
TTITLE2=One Boy
TTITLE3=Non Ho L'eta
TTITLE4=Put Your Head On My Shoulder
TTITLE5=Louisiana Mama
TTITLE6=You Are My Destiny
TTITLE7=Rock Around The Clock
TTITLE8=Surfin'U.S.A
TTITLE9=One Way Ticket
TTITLE10=Pretty Little Baby
TTITLE11=The End Of The World (MoNo)
EXTD=
EXTT0=
EXTT1=
EXTT2=
EXTT3=
EXTT4=
EXTT5=
EXTT6=
EXTT7=
EXTT8=
EXTT9=
EXTT10=
EXTT11=
PLAYORDER=
